{
    "asset" : {
        "generator" : "Khronos glTF Blender I/O v1.1.46",
        "version" : "2.0"
    },
    "scene" : 0,
    "scenes" : [
        {
            "name" : "Scene",
            "nodes" : [
                4
            ]
        }
    ],
    "nodes" : [
        {
            "mesh" : 0,
            "name" : "Object_4"
        },
        {
            "children" : [
                0
            ],
            "name" : "Node"
        },
        {
            "children" : [
                1
            ],
            "name" : "Uranus.obj.cleaner.materialmerger.gles",
            "translation" : [
                0,
                -0.1693740040063858,
                1.9243700504302979
            ]
        },
        {
            "children" : [
                2
            ],
            "name" : "RootNode (model correction matrix)"
        },
        {
            "children" : [
                3
            ],
            "name" : "RootNode (gltf orientation matrix)",
            "translation" : [
                -1.0064536333084106,
                -0.7757130265235901,
                -0.921095609664917
            ]
        }
    ],
    "materials" : [
        {
            "doubleSided" : true,
            "emissiveFactor" : [
                0,
                0,
                0
            ],
            "name" : "moon",
            "pbrMetallicRoughness" : {
                "baseColorTexture" : {
                    "index" : 0,
                    "texCoord" : 0
                },
                "metallicFactor" : 0,
                "roughnessFactor" : 0.6000000238418579
            }
        }
    ],
    "meshes" : [
        {
            "name" : "Mesh_0",
            "primitives" : [
                {
                    "attributes" : {
                        "POSITION" : 0,
                        "NORMAL" : 1,
                        "TEXCOORD_0" : 2
                    },
                    "indices" : 3,
                    "material" : 0
                }
            ]
        }
    ],
    "textures" : [
        {
            "source" : 0
        }
    ],
    "images" : [
        {
            "mimeType" : "image/png",
            "name" : "moon_baseColor",
            "uri" : "moon_baseColor.png"
        }
    ],
    "accessors" : [
        {
            "bufferView" : 0,
            "componentType" : 5126,
            "count" : 16554,
            "max" : [
                2.000002145767212,
                2,
                0
            ],
            "min" : [
                0,
                0,
                -2.0000009536743164
            ],
            "type" : "VEC3"
        },
        {
            "bufferView" : 1,
            "componentType" : 5126,
            "count" : 16554,
            "type" : "VEC3"
        },
        {
            "bufferView" : 2,
            "componentType" : 5126,
            "count" : 16554,
            "type" : "VEC2"
        },
        {
            "bufferView" : 3,
            "componentType" : 5123,
            "count" : 97536,
            "type" : "SCALAR"
        }
    ],
    "bufferViews" : [
        {
            "buffer" : 0,
            "byteLength" : 198648,
            "byteOffset" : 0
        },
        {
            "buffer" : 0,
            "byteLength" : 198648,
            "byteOffset" : 198648
        },
        {
            "buffer" : 0,
            "byteLength" : 132432,
            "byteOffset" : 397296
        },
        {
            "buffer" : 0,
            "byteLength" : 195072,
            "byteOffset" : 529728
        }
    ],
    "buffers" : [
        {
            "byteLength" : 724800,
            "uri" : "scene.bin"
        }
    ]
}
